<svg xmlns="http://www.w3.org/2000/svg" xmlns:xlink="http://www.w3.org/1999/xlink" width="500" zoomAndPan="magnify" viewBox="0 0 375 374.999991" height="500" preserveAspectRatio="xMidYMid meet" version="1.0"><defs><g/><clipPath id="72eb597b5a"><path d="M 171.128906 115.90625 L 325.683594 115.90625 L 325.683594 271.128906 L 171.128906 271.128906 Z M 171.128906 115.90625 " clip-rule="nonzero"/></clipPath><clipPath id="ac9da8dafb"><path d="M 171 96 L 250 96 L 250 120 L 171 120 Z M 171 96 " clip-rule="nonzero"/></clipPath><clipPath id="ae5022ffe9"><path d="M 171.117188 115.476562 L 248.492188 96.675781 L 249.40625 100.433594 L 172.027344 119.234375 Z M 171.117188 115.476562 " clip-rule="nonzero"/></clipPath><clipPath id="61e51caf55"><path d="M 171.117188 115.476562 L 248.40625 96.699219 L 249.304688 100.394531 L 172.015625 119.171875 Z M 171.117188 115.476562 " clip-rule="nonzero"/></clipPath><clipPath id="e2473ca3af"><path d="M 252 99 L 326 99 L 326 118 L 252 118 Z M 252 99 " clip-rule="nonzero"/></clipPath><clipPath id="d6b3b323d5"><path d="M 253.242188 99.382812 L 325.8125 113.898438 L 325.050781 117.6875 L 252.484375 103.175781 Z M 253.242188 99.382812 " clip-rule="nonzero"/></clipPath><clipPath id="687e77c127"><path d="M 253.242188 99.382812 L 325.683594 113.871094 L 324.949219 117.550781 L 252.507812 103.0625 Z M 253.242188 99.382812 " clip-rule="nonzero"/></clipPath><clipPath id="b43a5ab6b4"><path d="M 249.34375 127.039062 L 263.757812 127.039062 L 263.757812 141.289062 L 249.34375 141.289062 Z M 249.34375 127.039062 " clip-rule="nonzero"/></clipPath><clipPath id="b6556a2ef7"><path d="M 267.148438 127.039062 L 281.734375 127.039062 L 281.734375 141.289062 L 267.148438 141.289062 Z M 267.148438 127.039062 " clip-rule="nonzero"/></clipPath><clipPath id="c20fd8b2ab"><path d="M 285.125 127.039062 L 299.707031 127.039062 L 299.707031 141.289062 L 285.125 141.289062 Z M 285.125 127.039062 " clip-rule="nonzero"/></clipPath><clipPath id="1cdb293ec8"><path d="M 303.101562 127.039062 L 317.515625 127.039062 L 317.515625 141.289062 L 303.101562 141.289062 Z M 303.101562 127.039062 " clip-rule="nonzero"/></clipPath></defs><rect x="-37.5" width="450" fill="#ffffff" y="-37.499999" height="449.999989" fill-opacity="1"/><rect x="-37.5" width="450" fill="#ffffff" y="-37.499999" height="449.999989" fill-opacity="1"/><rect x="-37.5" width="450" fill="#27ae60" y="-37.499999" height="449.999989" fill-opacity="1"/><g clip-path="url(#72eb597b5a)"><path fill="#1c2120" d="M 171.128906 115.90625 L 325.589844 115.90625 L 325.589844 271.203125 L 171.128906 271.203125 Z M 171.128906 115.90625 " fill-opacity="1" fill-rule="nonzero"/></g><g clip-path="url(#ac9da8dafb)"><g clip-path="url(#ae5022ffe9)"><g clip-path="url(#61e51caf55)"><path fill="#1c2120" d="M 171.117188 115.476562 L 248.324219 96.71875 L 249.234375 100.476562 L 172.027344 119.234375 Z M 171.117188 115.476562 " fill-opacity="1" fill-rule="nonzero"/></g></g></g><g clip-path="url(#e2473ca3af)"><g clip-path="url(#d6b3b323d5)"><g clip-path="url(#687e77c127)"><path fill="#1c2120" d="M 253.242188 99.382812 L 325.636719 113.863281 L 324.914062 117.480469 L 252.519531 103.003906 Z M 253.242188 99.382812 " fill-opacity="1" fill-rule="nonzero"/></g></g></g><path fill="#27ae60" d="M 273.550781 132.035156 L 272.003906 129.527344 L 270.453125 132.035156 L 271.332031 131.707031 L 271.332031 136.871094 L 272.671875 136.871094 L 272.671875 131.707031 L 273.550781 132.035156 " fill-opacity="1" fill-rule="nonzero"/><path fill="#27ae60" d="M 278.433594 132.035156 L 276.882812 129.527344 L 275.332031 132.035156 L 276.210938 131.707031 L 276.210938 136.871094 L 277.554688 136.871094 L 277.554688 131.707031 L 278.433594 132.035156 " fill-opacity="1" fill-rule="nonzero"/><path fill="#27ae60" d="M 278.433594 138.808594 L 270.453125 138.808594 L 270.453125 137.316406 L 278.433594 137.316406 L 278.433594 138.808594 " fill-opacity="1" fill-rule="nonzero"/><path fill="#27ae60" d="M 291.113281 136.121094 L 291.109375 136.113281 C 291.089844 136.066406 291.0625 136.023438 291.035156 135.980469 L 290.933594 135.847656 L 288.875 133.800781 C 288.695312 133.625 288.40625 133.625 288.226562 133.804688 L 288.222656 133.8125 C 288.042969 133.992188 288.042969 134.28125 288.222656 134.460938 L 289.96875 136.191406 C 290.007812 136.234375 289.996094 136.300781 289.945312 136.324219 C 289.914062 136.339844 289.875 136.332031 289.851562 136.308594 L 288.109375 134.578125 C 287.863281 134.335938 287.863281 133.9375 288.105469 133.695312 L 288.109375 133.6875 C 288.132812 133.664062 288.160156 133.644531 288.1875 133.625 L 288.1875 131.414062 C 288.1875 131.144531 287.96875 130.925781 287.699219 130.925781 L 287.691406 130.925781 C 287.421875 130.925781 287.199219 131.144531 287.199219 131.414062 L 287.199219 133.835938 C 287.199219 134.171875 287.3125 134.496094 287.519531 134.761719 L 288.488281 136.011719 C 288.800781 136.410156 288.96875 136.90625 288.96875 137.414062 L 288.96875 138.808594 L 291.132812 138.808594 L 291.132812 136.210938 C 291.132812 136.179688 291.128906 136.148438 291.113281 136.121094 " fill-opacity="1" fill-rule="nonzero"/><path fill="#27ae60" d="M 293.714844 136.121094 L 293.71875 136.113281 C 293.742188 136.066406 293.765625 136.023438 293.796875 135.980469 L 293.894531 135.847656 L 295.953125 133.800781 C 296.132812 133.625 296.425781 133.625 296.601562 133.804688 L 296.609375 133.8125 C 296.789062 133.992188 296.785156 134.28125 296.609375 134.460938 L 294.863281 136.191406 C 294.824219 136.234375 294.835938 136.300781 294.886719 136.324219 C 294.917969 136.339844 294.953125 136.332031 294.980469 136.308594 L 296.722656 134.578125 C 296.96875 134.335938 296.96875 133.9375 296.726562 133.695312 L 296.71875 133.6875 C 296.695312 133.664062 296.667969 133.644531 296.644531 133.625 L 296.644531 131.414062 C 296.644531 131.144531 296.859375 130.925781 297.132812 130.925781 L 297.140625 130.925781 C 297.410156 130.925781 297.628906 131.144531 297.628906 131.414062 L 297.628906 133.835938 C 297.628906 134.171875 297.519531 134.496094 297.3125 134.761719 L 296.34375 136.011719 C 296.03125 136.410156 295.863281 136.90625 295.863281 137.414062 L 295.863281 138.808594 L 293.695312 138.808594 L 293.695312 136.210938 C 293.695312 136.179688 293.703125 136.148438 293.714844 136.121094 " fill-opacity="1" fill-rule="nonzero"/><path fill="#27ae60" d="M 292.414062 129.445312 L 290.15625 130.445312 L 292.414062 131.335938 L 294.652344 130.460938 L 292.414062 129.445312 " fill-opacity="1" fill-rule="nonzero"/><path fill="#27ae60" d="M 292.5625 131.625 L 294.722656 130.761719 L 294.722656 133.078125 L 292.5625 133.984375 L 292.5625 131.625 " fill-opacity="1" fill-rule="nonzero"/><path fill="#27ae60" d="M 292.214844 131.625 L 290.054688 130.761719 L 290.054688 133.105469 L 292.214844 133.984375 L 292.214844 131.625 " fill-opacity="1" fill-rule="nonzero"/><path fill="#27ae60" d="M 312.101562 138.554688 L 312.085938 138.554688 C 311.988281 138.554688 311.90625 138.621094 311.882812 138.71875 C 311.8125 138.996094 311.558594 139.203125 311.253906 139.203125 C 310.898438 139.203125 310.605469 138.914062 310.605469 138.554688 L 310.605469 129.890625 C 310.605469 129.769531 310.507812 129.671875 310.390625 129.671875 L 310.386719 129.671875 C 310.265625 129.671875 310.167969 129.769531 310.167969 129.890625 L 310.167969 138.554688 C 310.167969 139.15625 310.65625 139.644531 311.253906 139.644531 C 311.765625 139.644531 312.195312 139.289062 312.3125 138.816406 C 312.34375 138.683594 312.238281 138.554688 312.101562 138.554688 " fill-opacity="1" fill-rule="nonzero"/><path fill="#27ae60" d="M 314.25 131.601562 C 314.21875 131.753906 314.160156 131.898438 314.078125 132.035156 C 313.835938 132.425781 313.417969 132.660156 312.960938 132.660156 L 312.925781 132.660156 C 312.464844 132.660156 312.046875 132.425781 311.804688 132.035156 C 311.566406 131.644531 311.542969 131.167969 311.75 130.757812 L 311.980469 130.292969 C 311.515625 130.183594 310.988281 130.121094 310.386719 130.121094 C 305.800781 130.121094 305.527344 133.820312 305.527344 133.820312 C 306.441406 133.484375 308.175781 133.976562 308.175781 133.976562 C 309.164062 133.554688 310.386719 133.683594 310.386719 133.683594 C 310.386719 133.683594 311.613281 133.554688 312.597656 133.976562 C 312.597656 133.976562 314.335938 133.484375 315.25 133.820312 C 315.25 133.820312 315.160156 132.632812 314.25 131.601562 " fill-opacity="1" fill-rule="nonzero"/><path fill="#27ae60" d="M 312.941406 128.921875 L 311.96875 130.867188 C 311.613281 131.578125 312.128906 132.414062 312.925781 132.414062 L 312.960938 132.414062 C 313.753906 132.414062 314.269531 131.578125 313.914062 130.867188 L 312.941406 128.921875 " fill-opacity="1" fill-rule="nonzero"/><path fill="#27ae60" d="M 307.636719 128.695312 L 307.203125 129.566406 C 307.042969 129.882812 307.273438 130.257812 307.628906 130.257812 L 307.644531 130.257812 C 308 130.257812 308.230469 129.882812 308.074219 129.566406 L 307.636719 128.695312 " fill-opacity="1" fill-rule="nonzero"/><path fill="#27ae60" d="M 256.730469 135.273438 C 261.296875 134.386719 258.261719 129.507812 258.261719 129.507812 L 256.738281 129.507812 L 256.773438 129.613281 L 257.386719 131.242188 L 256.699219 131.242188 L 257.304688 132.300781 L 256.722656 132.300781 L 257.375 133.769531 L 255.632812 132.007812 L 256.234375 131.992188 L 255.550781 130.785156 L 256.273438 130.789062 L 255.683594 129.679688 L 255.582031 129.507812 L 254.621094 129.507812 C 254.621094 129.507812 251.71875 134.386719 256.15625 135.273438 C 256.171875 135.28125 256.183594 135.285156 256.199219 135.289062 L 256.199219 137.886719 C 255.160156 137.914062 254.355469 138.113281 254.355469 138.355469 C 254.355469 138.617188 255.289062 138.832031 256.441406 138.832031 C 257.597656 138.832031 258.53125 138.617188 258.53125 138.355469 C 258.53125 138.113281 257.722656 137.914062 256.683594 137.886719 L 256.683594 135.289062 C 256.699219 135.285156 256.714844 135.28125 256.730469 135.273438 " fill-opacity="1" fill-rule="nonzero"/><path fill="#27ae60" d="M 256.773438 129.613281 L 256.738281 129.507812 L 256.730469 129.507812 Z M 256.773438 129.613281 " fill-opacity="1" fill-rule="nonzero"/><path fill="#27ae60" d="M 255.589844 129.507812 L 255.582031 129.507812 L 255.683594 129.679688 Z M 255.589844 129.507812 " fill-opacity="1" fill-rule="nonzero"/><g clip-path="url(#b43a5ab6b4)"><path fill="#27ae60" d="M 249.835938 140.804688 L 263.101562 140.804688 L 263.101562 127.53125 L 249.835938 127.53125 Z M 263.59375 141.296875 L 249.34375 141.296875 L 249.34375 127.039062 L 263.59375 127.039062 L 263.59375 141.296875 " fill-opacity="1" fill-rule="nonzero"/></g><g clip-path="url(#b6556a2ef7)"><path fill="#27ae60" d="M 267.808594 140.804688 L 281.074219 140.804688 L 281.074219 127.53125 L 267.808594 127.53125 Z M 281.566406 141.296875 L 267.316406 141.296875 L 267.316406 127.039062 L 281.566406 127.039062 L 281.566406 141.296875 " fill-opacity="1" fill-rule="nonzero"/></g><g clip-path="url(#c20fd8b2ab)"><path fill="#27ae60" d="M 285.78125 140.804688 L 299.046875 140.804688 L 299.046875 127.53125 L 285.78125 127.53125 Z M 299.542969 141.296875 L 285.289062 141.296875 L 285.289062 127.039062 L 299.542969 127.039062 L 299.542969 141.296875 " fill-opacity="1" fill-rule="nonzero"/></g><g clip-path="url(#1cdb293ec8)"><path fill="#27ae60" d="M 303.753906 140.804688 L 317.019531 140.804688 L 317.019531 127.53125 L 303.753906 127.53125 Z M 317.515625 141.296875 L 303.261719 141.296875 L 303.261719 127.039062 L 317.515625 127.039062 L 317.515625 141.296875 " fill-opacity="1" fill-rule="nonzero"/></g><g fill="#1c2120" fill-opacity="1"><g transform="translate(61.087322, 193.059033)"><g><path d="M 15.640625 -4.53125 C 15.640625 -3.09375 15.097656 -1.976562 14.015625 -1.1875 C 12.929688 -0.394531 11.425781 0 9.5 0 L 1.546875 0 L 1.546875 -15.90625 L 8.828125 -15.90625 C 10.765625 -15.90625 12.226562 -15.566406 13.21875 -14.890625 C 14.21875 -14.210938 14.71875 -13.21875 14.71875 -11.90625 C 14.71875 -11 14.46875 -10.234375 13.96875 -9.609375 C 13.46875 -8.992188 12.707031 -8.578125 11.6875 -8.359375 C 12.976562 -8.210938 13.957031 -7.804688 14.625 -7.140625 C 15.300781 -6.484375 15.640625 -5.613281 15.640625 -4.53125 Z M 11.375 -11.453125 C 11.375 -12.171875 11.144531 -12.675781 10.6875 -12.96875 C 10.238281 -13.269531 9.566406 -13.421875 8.671875 -13.421875 L 4.875 -13.421875 L 4.875 -9.484375 L 8.6875 -9.484375 C 9.625 -9.484375 10.304688 -9.644531 10.734375 -9.96875 C 11.160156 -10.300781 11.375 -10.796875 11.375 -11.453125 Z M 12.296875 -4.796875 C 12.296875 -6.285156 11.226562 -7.03125 9.09375 -7.03125 L 4.875 -7.03125 L 4.875 -2.46875 L 9.21875 -2.46875 C 10.289062 -2.46875 11.070312 -2.660156 11.5625 -3.046875 C 12.050781 -3.441406 12.296875 -4.023438 12.296875 -4.796875 Z M 12.296875 -4.796875 "/></g></g></g><g fill="#1c2120" fill-opacity="1"><g transform="translate(77.770261, 193.059033)"><g><path d="M 1.546875 0 L 1.546875 -15.90625 L 4.875 -15.90625 L 4.875 -2.578125 L 13.40625 -2.578125 L 13.40625 0 Z M 1.546875 0 "/></g></g></g><g fill="#1c2120" fill-opacity="1"><g transform="translate(91.881389, 193.059033)"><g><path d="M 17 -8.015625 C 17 -6.367188 16.671875 -4.914062 16.015625 -3.65625 C 15.367188 -2.394531 14.4375 -1.429688 13.21875 -0.765625 C 12 -0.109375 10.578125 0.21875 8.953125 0.21875 C 6.453125 0.21875 4.492188 -0.515625 3.078125 -1.984375 C 1.660156 -3.453125 0.953125 -5.460938 0.953125 -8.015625 C 0.953125 -10.566406 1.65625 -12.554688 3.0625 -13.984375 C 4.476562 -15.421875 6.445312 -16.140625 8.96875 -16.140625 C 11.488281 -16.140625 13.457031 -15.414062 14.875 -13.96875 C 16.289062 -12.519531 17 -10.535156 17 -8.015625 Z M 13.609375 -8.015625 C 13.609375 -9.734375 13.203125 -11.078125 12.390625 -12.046875 C 11.578125 -13.023438 10.4375 -13.515625 8.96875 -13.515625 C 7.476562 -13.515625 6.328125 -13.03125 5.515625 -12.0625 C 4.703125 -11.101562 4.296875 -9.753906 4.296875 -8.015625 C 4.296875 -6.273438 4.710938 -4.898438 5.546875 -3.890625 C 6.378906 -2.890625 7.515625 -2.390625 8.953125 -2.390625 C 10.441406 -2.390625 11.585938 -2.878906 12.390625 -3.859375 C 13.203125 -4.835938 13.609375 -6.222656 13.609375 -8.015625 Z M 13.609375 -8.015625 "/></g></g></g><g fill="#1c2120" fill-opacity="1"><g transform="translate(109.850232, 193.059033)"><g><path d="M 9.09375 -2.375 C 9.957031 -2.375 10.796875 -2.5 11.609375 -2.75 C 12.421875 -3.007812 13.050781 -3.332031 13.5 -3.71875 L 13.5 -5.921875 L 9.609375 -5.921875 L 9.609375 -8.390625 L 16.546875 -8.390625 L 16.546875 -2.53125 C 15.703125 -1.664062 14.601562 -0.988281 13.25 -0.5 C 11.90625 -0.0195312 10.488281 0.21875 9 0.21875 C 6.414062 0.21875 4.425781 -0.492188 3.03125 -1.921875 C 1.644531 -3.359375 0.953125 -5.390625 0.953125 -8.015625 C 0.953125 -10.640625 1.648438 -12.648438 3.046875 -14.046875 C 4.441406 -15.441406 6.453125 -16.140625 9.078125 -16.140625 C 12.816406 -16.140625 15.191406 -14.757812 16.203125 -12 L 13.140625 -11.0625 C 12.804688 -11.875 12.285156 -12.484375 11.578125 -12.890625 C 10.867188 -13.304688 10.035156 -13.515625 9.078125 -13.515625 C 7.515625 -13.515625 6.328125 -13.039062 5.515625 -12.09375 C 4.703125 -11.144531 4.296875 -9.785156 4.296875 -8.015625 C 4.296875 -6.222656 4.710938 -4.832031 5.546875 -3.84375 C 6.390625 -2.863281 7.570312 -2.375 9.09375 -2.375 Z M 9.09375 -2.375 "/></g></g></g><g fill="#1c2120" fill-opacity="1"><g transform="translate(127.819076, 193.059033)"><g/></g></g><g fill="#1c2120" fill-opacity="1"><g transform="translate(134.237332, 193.059033)"><g><path d="M 15.71875 -8.0625 C 15.71875 -6.425781 15.394531 -4.992188 14.75 -3.765625 C 14.101562 -2.546875 13.191406 -1.613281 12.015625 -0.96875 C 10.835938 -0.320312 9.492188 0 7.984375 0 L 1.546875 0 L 1.546875 -15.90625 L 7.296875 -15.90625 C 9.972656 -15.90625 12.046875 -15.226562 13.515625 -13.875 C 14.984375 -12.519531 15.71875 -10.582031 15.71875 -8.0625 Z M 12.359375 -8.0625 C 12.359375 -9.769531 11.914062 -11.070312 11.03125 -11.96875 C 10.144531 -12.875 8.878906 -13.328125 7.234375 -13.328125 L 4.875 -13.328125 L 4.875 -2.578125 L 7.703125 -2.578125 C 9.128906 -2.578125 10.257812 -3.066406 11.09375 -4.046875 C 11.9375 -5.035156 12.359375 -6.375 12.359375 -8.0625 Z M 12.359375 -8.0625 "/></g></g></g><g fill="#1c2120" fill-opacity="1"><g transform="translate(150.92027, 193.059033)"><g><path d="M 17 -8.015625 C 17 -6.367188 16.671875 -4.914062 16.015625 -3.65625 C 15.367188 -2.394531 14.4375 -1.429688 13.21875 -0.765625 C 12 -0.109375 10.578125 0.21875 8.953125 0.21875 C 6.453125 0.21875 4.492188 -0.515625 3.078125 -1.984375 C 1.660156 -3.453125 0.953125 -5.460938 0.953125 -8.015625 C 0.953125 -10.566406 1.65625 -12.554688 3.0625 -13.984375 C 4.476562 -15.421875 6.445312 -16.140625 8.96875 -16.140625 C 11.488281 -16.140625 13.457031 -15.414062 14.875 -13.96875 C 16.289062 -12.519531 17 -10.535156 17 -8.015625 Z M 13.609375 -8.015625 C 13.609375 -9.734375 13.203125 -11.078125 12.390625 -12.046875 C 11.578125 -13.023438 10.4375 -13.515625 8.96875 -13.515625 C 7.476562 -13.515625 6.328125 -13.03125 5.515625 -12.0625 C 4.703125 -11.101562 4.296875 -9.753906 4.296875 -8.015625 C 4.296875 -6.273438 4.710938 -4.898438 5.546875 -3.890625 C 6.378906 -2.890625 7.515625 -2.390625 8.953125 -2.390625 C 10.441406 -2.390625 11.585938 -2.878906 12.390625 -3.859375 C 13.203125 -4.835938 13.609375 -6.222656 13.609375 -8.015625 Z M 13.609375 -8.015625 "/></g></g></g><g fill="#1c2120" fill-opacity="1"><g transform="translate(52.105999, 257.125807)"><g><path d="M 32.546875 -8.671875 C 39.835938 -8.671875 44.898438 -12.332031 47.734375 -19.65625 L 58.25 -15.6875 C 55.988281 -10.113281 52.664062 -5.96875 48.28125 -3.25 C 43.90625 -0.539062 38.660156 0.8125 32.546875 0.8125 C 23.265625 0.8125 16.09375 -1.8125 11.03125 -7.0625 C 5.96875 -12.3125 3.4375 -19.660156 3.4375 -29.109375 C 3.4375 -38.578125 5.878906 -45.847656 10.765625 -50.921875 C 15.648438 -56.003906 22.734375 -58.546875 32.015625 -58.546875 C 38.785156 -58.546875 44.296875 -57.1875 48.546875 -54.46875 C 52.804688 -51.75 55.796875 -47.757812 57.515625 -42.5 L 46.875 -39.59375 C 45.976562 -42.476562 44.210938 -44.773438 41.578125 -46.484375 C 38.941406 -48.191406 35.835938 -49.046875 32.265625 -49.046875 C 26.804688 -49.046875 22.660156 -47.351562 19.828125 -43.96875 C 17.003906 -40.582031 15.59375 -35.628906 15.59375 -29.109375 C 15.59375 -22.472656 17.046875 -17.40625 19.953125 -13.90625 C 22.859375 -10.414062 27.054688 -8.671875 32.546875 -8.671875 Z M 32.546875 -8.671875 "/></g></g></g><g fill="#1c2120" fill-opacity="1"><g transform="translate(112.658093, 257.125807)"><g><path d="M 42.828125 0 L 42.828125 -24.734375 L 17.6875 -24.734375 L 17.6875 0 L 5.609375 0 L 5.609375 -57.6875 L 17.6875 -57.6875 L 17.6875 -34.71875 L 42.828125 -34.71875 L 42.828125 -57.6875 L 54.90625 -57.6875 L 54.90625 0 Z M 42.828125 0 "/></g></g></g><g fill="#27ae60" fill-opacity="1"><g transform="translate(173.207554, 257.125807)"><g><path d="M 45.234375 0 L 31.84375 -21.90625 L 17.6875 -21.90625 L 17.6875 0 L 5.609375 0 L 5.609375 -57.6875 L 34.4375 -57.6875 C 41.3125 -57.6875 46.617188 -56.203125 50.359375 -53.234375 C 54.097656 -50.273438 55.96875 -46.023438 55.96875 -40.484375 C 55.96875 -36.453125 54.820312 -32.96875 52.53125 -30.03125 C 50.238281 -27.09375 47.140625 -25.160156 43.234375 -24.234375 L 58.828125 0 Z M 43.8125 -40 C 43.8125 -45.539062 40.257812 -48.3125 33.15625 -48.3125 L 17.6875 -48.3125 L 17.6875 -31.28125 L 33.484375 -31.28125 C 36.867188 -31.28125 39.4375 -32.039062 41.1875 -33.5625 C 42.9375 -35.09375 43.8125 -37.238281 43.8125 -40 Z M 43.8125 -40 "/></g></g></g><g fill="#27ae60" fill-opacity="1"><g transform="translate(233.759647, 257.125807)"><g><path d="M 5.609375 0 L 5.609375 -57.6875 L 17.6875 -57.6875 L 17.6875 0 Z M 5.609375 0 "/></g></g></g><g fill="#27ae60" fill-opacity="1"><g transform="translate(257.055216, 257.125807)"><g><path d="M 52.640625 -16.625 C 52.640625 -10.96875 50.546875 -6.644531 46.359375 -3.65625 C 42.171875 -0.675781 36.023438 0.8125 27.921875 0.8125 C 20.523438 0.8125 14.722656 -0.492188 10.515625 -3.109375 C 6.316406 -5.734375 3.617188 -9.707031 2.421875 -15.03125 L 14.078125 -16.953125 C 14.867188 -13.890625 16.410156 -11.671875 18.703125 -10.296875 C 20.992188 -8.921875 24.175781 -8.234375 28.25 -8.234375 C 36.675781 -8.234375 40.890625 -10.796875 40.890625 -15.921875 C 40.890625 -17.554688 40.40625 -18.90625 39.4375 -19.96875 C 38.46875 -21.039062 37.101562 -21.929688 35.34375 -22.640625 C 33.582031 -23.347656 30.207031 -24.207031 25.21875 -25.21875 C 20.90625 -26.226562 17.898438 -27.039062 16.203125 -27.65625 C 14.515625 -28.269531 12.988281 -28.992188 11.625 -29.828125 C 10.257812 -30.660156 9.097656 -31.660156 8.140625 -32.828125 C 7.191406 -34.003906 6.453125 -35.382812 5.921875 -36.96875 C 5.390625 -38.550781 5.125 -40.363281 5.125 -42.40625 C 5.125 -47.625 7.078125 -51.617188 10.984375 -54.390625 C 14.898438 -57.160156 20.597656 -58.546875 28.078125 -58.546875 C 35.234375 -58.546875 40.601562 -57.425781 44.1875 -55.1875 C 47.78125 -52.945312 50.097656 -49.25 51.140625 -44.09375 L 39.421875 -42.5 C 38.828125 -44.976562 37.609375 -46.84375 35.765625 -48.09375 C 33.921875 -49.351562 31.28125 -49.984375 27.84375 -49.984375 C 20.519531 -49.984375 16.859375 -47.691406 16.859375 -43.109375 C 16.859375 -41.609375 17.25 -40.378906 18.03125 -39.421875 C 18.8125 -38.460938 19.960938 -37.648438 21.484375 -36.984375 C 23.015625 -36.316406 26.113281 -35.476562 30.78125 -34.46875 C 36.320312 -33.289062 40.285156 -32.203125 42.671875 -31.203125 C 45.066406 -30.210938 46.957031 -29.054688 48.34375 -27.734375 C 49.738281 -26.410156 50.800781 -24.828125 51.53125 -22.984375 C 52.269531 -21.140625 52.640625 -19.019531 52.640625 -16.625 Z M 52.640625 -16.625 "/></g></g></g></svg>